<svg id="Layer_1" data-name="Layer 1" xmlns="http://www.w3.org/2000/svg" viewBox="0 0 414.22 53.11"><defs><style>.cls-1{fill:#aa1a2f;}.cls-2{fill:#231f20;}.cls-3{fill:#55565a;}</style></defs><title>Artboard 1</title><path class="cls-1" d="M11.4,7c-.17-1.69-1.07-3.26-2.86-3.26-2.09,0-3.13,1.76-3.13,5.82,0,4.21.95,6.22,3.63,6.22,1.94,0,3.16-1.74,3.53-3.51l4,.87c-1.27,4.45-4,6.37-8.61,6.37-3.63,0-8.26-2.83-8.26-9.6S4.21,0,8.76,0a7.29,7.29,0,0,1,7.66,6.62Z"/><path class="cls-1" d="M26.23,12.54c0-3.09-.82-3.93-2.19-3.93s-2.19.84-2.19,3.93.82,3.93,2.19,3.93,2.19-.85,2.19-3.93M24,19.5c-4.15,0-7.06-2.56-7.06-7a6.65,6.65,0,0,1,7.06-7,6.7,6.7,0,0,1,7.06,7c0,4.2-2.84,7-7.06,7"/><path class="cls-1" d="M31.75,5.92h4.67V8h.05a6,6,0,0,1,4.68-2.41v4.9a6.09,6.09,0,0,0-2.54-.67,3.25,3.25,0,0,0-2.19.89v8.46H31.75Z"/><path class="cls-1" d="M41.87,5.92h4.68V7.81a6.38,6.38,0,0,1,4.3-2.24,3.71,3.71,0,0,1,3.81,4v9.58H50V10.77c0-.95-.22-1.92-1.42-1.92a3.41,3.41,0,0,0-2,1.2v9.1H41.87Z"/><path class="cls-1" d="M64.56,10.87c0-1.39-.6-2.56-1.94-2.56-1.59,0-2.16,1.12-2.19,2.56Zm-4.3,2.54a2.92,2.92,0,0,0,3.08,3.06,3.47,3.47,0,0,0,3-1.94l3.08,1.39a7.85,7.85,0,0,1-7,3.58c-4.15,0-7.06-2.56-7.06-7a6.65,6.65,0,0,1,7.06-7c3.93,0,7,2.29,7,7.46v.37Z"/><rect class="cls-1" x="70.15" y="0.35" width="4.68" height="18.8"/><rect class="cls-1" x="76.69" y="0.35" width="4.68" height="18.8"/><polygon class="cls-2" points="83.33 0.35 97.48 0.35 97.48 4.23 88.7 4.23 88.7 7.64 94.32 7.64 94.32 11.52 88.7 11.52 88.7 15.12 97.75 15.12 97.75 19.15 83.33 19.15 83.33 0.35"/><path class="cls-2" d="M98.95,5.92h4.68V7.81a6.37,6.37,0,0,1,4.3-2.24,3.7,3.7,0,0,1,3.8,4v9.58h-4.68V10.77c0-.95-.22-1.92-1.42-1.92a3.41,3.41,0,0,0-2,1.2v9.1H98.95Z"/><path class="cls-2" d="M117.33,9.72a2,2,0,1,0,3.91,0,1.87,1.87,0,0,0-1.87-1.89,2,2,0,0,0-2,1.91m1.07,9.08c-1.64,0-2.61.12-2.61,1,0,.65.5,1.12,3.58,1.12,1.59,0,3.73-.17,3.73-1,0-1-2.39-1.12-4.7-1.12m8.88-10.4c-.55-.32-1.79-.79-2.24-.07a2.22,2.22,0,0,1,.37,1.2c0,2.63-2.06,4.28-5.79,4.28H118.5c-1.12,0-1.22.27-1.22.6,0,.5.28.55,1.17.62l2.51.17c2.81.2,6.17.77,6.17,3.85,0,1.92-2.06,4.28-8,4.28-3.83,0-6.77-.67-6.77-2.56,0-1.34,1.32-2,2.39-2.29v0a2.32,2.32,0,0,1-1.87-2.14c0-1.57,1.77-2.54,3-2.94v-.05a3.87,3.87,0,0,1-2.76-3.61c0-1.82,1.82-4.13,5.79-4.13a8,8,0,0,1,5,1.34,4.18,4.18,0,0,1,3.31-1.34Z"/><path class="cls-2" d="M127.85,5.92h4.68V19.15h-4.68Zm0-5.57h4.68V4.08h-4.68Z"/><path class="cls-2" d="M134.14,5.92h4.68V7.81a6.37,6.37,0,0,1,4.3-2.24,3.71,3.71,0,0,1,3.81,4v9.58h-4.68V10.77c0-.95-.22-1.92-1.42-1.92a3.4,3.4,0,0,0-2,1.2v9.1h-4.68Z"/><path class="cls-2" d="M157.12,10.87c0-1.39-.6-2.56-1.94-2.56-1.59,0-2.17,1.12-2.19,2.56Zm-4.3,2.54a2.92,2.92,0,0,0,3.08,3.06,3.47,3.47,0,0,0,3-1.94L162,15.92a7.85,7.85,0,0,1-7,3.58c-4.15,0-7.06-2.56-7.06-7a6.65,6.65,0,0,1,7.06-7c3.93,0,7,2.29,7,7.46v.37Z"/><path class="cls-2" d="M171.6,10.87c.05-1.39-.6-2.56-1.94-2.56-1.59,0-2.16,1.12-2.19,2.56Zm-4.3,2.54a2.92,2.92,0,0,0,3.09,3.06,3.47,3.47,0,0,0,3-1.94l3.08,1.39a7.84,7.84,0,0,1-7,3.58c-4.15,0-7.06-2.56-7.06-7a6.65,6.65,0,0,1,7.06-7c3.93,0,7,2.29,7,7.46v.37Z"/><path class="cls-2" d="M177.5,5.92h4.68V8h0a6,6,0,0,1,4.68-2.41v4.9a6.07,6.07,0,0,0-2.54-.67,3.24,3.24,0,0,0-2.19.89v8.46H177.5Z"/><path class="cls-2" d="M188,5.92h4.68V19.15H188Zm0-5.57h4.68V4.08H188Z"/><path class="cls-2" d="M194.33,5.92H199V7.81a6.38,6.38,0,0,1,4.3-2.24,3.71,3.71,0,0,1,3.81,4v9.58h-4.68V10.77c0-.95-.23-1.92-1.42-1.92a3.42,3.42,0,0,0-2,1.2v9.1h-4.68Z"/><path class="cls-2" d="M212.71,9.72a2,2,0,1,0,3.9,0,1.87,1.87,0,0,0-1.87-1.89,2,2,0,0,0-2,1.91m1.07,9.08c-1.64,0-2.61.12-2.61,1,0,.65.5,1.12,3.58,1.12,1.59,0,3.73-.17,3.73-1,0-1-2.39-1.12-4.7-1.12m8.88-10.4c-.55-.32-1.79-.79-2.24-.07a2.22,2.22,0,0,1,.38,1.2c0,2.63-2.06,4.28-5.79,4.28h-1.12c-1.12,0-1.22.27-1.22.6,0,.5.28.55,1.17.62l2.51.17c2.81.2,6.17.77,6.17,3.85,0,1.92-2.06,4.28-8,4.28-3.83,0-6.77-.67-6.77-2.56,0-1.34,1.32-2,2.39-2.29v0a2.33,2.33,0,0,1-1.87-2.14c0-1.57,1.77-2.54,3-2.94v-.05a3.87,3.87,0,0,1-2.76-3.61c0-1.82,1.82-4.13,5.8-4.13a8,8,0,0,1,5,1.34,4.18,4.18,0,0,1,3.31-1.34Z"/><path class="cls-3" d="M16.32,44.11c-.2.48-.38,1-.56,1.44a13.25,13.25,0,0,1-5.84,1.27c-5,0-9.76-3-9.76-9,0-5.66,3.82-9.33,10.14-9.33a21.84,21.84,0,0,1,5.87.94l.15.18a13.47,13.47,0,0,0-.48,3.56l-.08.08H15l-.08-.08a16,16,0,0,0-.15-1.9A6.87,6.87,0,0,0,10,29.7c-4.73,0-6.83,3.74-6.83,7.23,0,4.6,2.65,8.37,8.09,8.37A8.88,8.88,0,0,0,16,43.93Z"/><path class="cls-3" d="M17.84,35.56l.08-.08a14.08,14.08,0,0,0,4.15-1l.35.23c-.1.94-.13,2.48-.13,3.44v4.07c0,2.07,0,2.93.2,3.16s.68.25,1.64.25l.08.08v.73l-.08.07c-1,0-2-.12-3.19-.12-1,0-2.07.08-3,.13l-.08-.07v-.73l.08-.08c1,0,1.52-.1,1.64-.25s.2-1.09.2-3.16v-3c0-2.2,0-2.6-.25-2.73a8.39,8.39,0,0,0-1.59-.1l-.08-.07Zm3.08-6.78A1.62,1.62,0,1,1,19.3,30.4,1.63,1.63,0,0,1,20.92,28.79Z"/><path class="cls-3" d="M33,34.86l.08-.08c.81.08,1.62.13,2.43.13a20.41,20.41,0,0,0,2.17-.13l.08.08v.73l-.08.08c-.91,0-1.11.05-1.69,1.31-.68,1.52-4.07,8.93-4.25,9.66H30.18c-1.49-3.56-4.25-10-4.7-10.64a1.83,1.83,0,0,0-1.06-.33l-.08-.08v-.73l.08-.08c1,.08,1.9.13,2.83.13s1.92-.05,2.88-.13l.08.08v.73l-.08.08c-.61,0-1.47,0-1.47.48,0,.3.18.86,3.06,7.84,2.88-7.11,3-7.43,3-7.79s-.33-.46-1.62-.53L33,35.59Z"/><path class="cls-3" d="M37.88,35.56l.08-.08a14.08,14.08,0,0,0,4.15-1l.35.23c-.1.94-.13,2.48-.13,3.44v4.07c0,2.07,0,2.93.2,3.16s.68.25,1.64.25l.08.08v.73l-.08.07c-1,0-2-.12-3.19-.12-1,0-2.07.08-3,.13l-.08-.07v-.73L38,45.6c1,0,1.52-.1,1.64-.25s.2-1.09.2-3.16v-3c0-2.2,0-2.6-.25-2.73a8.39,8.39,0,0,0-1.59-.1l-.08-.07ZM41,28.79a1.62,1.62,0,1,1-1.62,1.62A1.63,1.63,0,0,1,41,28.79Z"/><path class="cls-3" d="M44.86,29l.08-.08a14.08,14.08,0,0,0,4.15-1l.35.23c-.1.94-.13,2.48-.13,3.44V42.19c0,2.07,0,2.93.2,3.16s.68.25,1.64.25l.08.08v.73l-.08.07c-1,0-2-.12-3.19-.12-1,0-2.07.08-3,.13l-.08-.07v-.73l.08-.08c1,0,1.52-.1,1.64-.25s.2-1.09.2-3.16V32.65c0-2.2,0-2.6-.25-2.73a8.56,8.56,0,0,0-1.59-.1l-.08-.08Z"/><path class="cls-3" d="M59.3,36.27c2.43-1.57,3-1.82,4.15-1.82,2.25,0,4.45.91,4.45,3.64,0,1.69,0,2.93,0,3.89a20.9,20.9,0,0,0,.08,3.24c.15.33.51.38,1.39.38l.08.08v.73l-.08.07a16.51,16.51,0,0,0-2-.12,17.15,17.15,0,0,0-1.95.13l-.15-.12c0-.68.1-1.34.1-1.95-.81.56-2.33,1.82-2.55,2a2.65,2.65,0,0,1-1.64.4,2.81,2.81,0,0,1-3.06-3.09c0-2.35.68-2.93,7.26-4.32,0-1.21-.28-3.13-2.86-3.13a4.3,4.3,0,0,0-2,.48A6.21,6.21,0,0,0,60,38.07l-.13.05-.56-.18-.08-.1Zm6.07,4c-4.3,1-4.63,1.64-4.63,2.81A1.7,1.7,0,0,0,62.53,45c.88,0,1.69-.56,2.83-1.72Z"/><path class="cls-3" d="M77.07,34.75a4.44,4.44,0,0,1,1.82-.3c2.78,0,3.92,1.77,3.92,4,0,1.44-.08,3.72-.08,6.12,0,.91.2,1,1.57,1l.13.13v.63l-.13.13c-.68,0-1.34-.12-2-.12s-1.34.08-2,.13L80,46.26a43.08,43.08,0,0,0,.23-5.56c0-2.5,0-4.27-2.4-4.27-1.37,0-2.93.83-2.93,1.9v3.87c0,2.07,0,2.93.2,3.16s.68.25,1.64.25l.08.08v.73l-.08.07c-1,0-2-.12-3.19-.12-1,0-2.07.08-3,.13l-.08-.07v-.73l.08-.08c1,0,1.52-.1,1.64-.25s.2-1.09.2-3.16v-3c0-2.2,0-2.6-.25-2.73a8.39,8.39,0,0,0-1.59-.1l-.08-.07v-.73l.08-.08a14.08,14.08,0,0,0,4.15-1l.25.18c-.05.58-.1,1.29-.1,2.15Z"/><path class="cls-3" d="M93.27,29l.08-.08a14.07,14.07,0,0,0,4.15-1l.35.23c-.1.94-.13,2.48-.13,3.44V42.19c0,2.07,0,2.93.2,3.16s.68.25,1.64.25l.08.08v.73l-.08.07c-.71,0-1.42-.12-2.15-.12s-1.47.08-2.22.13L95,46.36a12.13,12.13,0,0,0,.15-2c-1,.73-1.74,1.44-2.58,2.15a5.13,5.13,0,0,1-1.82.3c-2.48,0-4.85-1.87-4.85-5.89,0-2,.4-3.54,2-4.58,2.88-1.85,3.39-1.89,4.48-1.89a4.59,4.59,0,0,1,2.76.88V32.65c0-2.2,0-2.6-.25-2.73a8.56,8.56,0,0,0-1.59-.1l-.08-.08Zm1.85,8.52a4.16,4.16,0,0,0-3.36-1.77c-1.85,0-3.29,1.52-3.29,4.4S90.11,45,92.14,45a3.25,3.25,0,0,0,3.06-3.46C95.2,39.51,95.14,38.57,95.12,37.54Z"/><path class="cls-3" d="M106.06,28.89l.08-.08c1.26.05,2.48.13,3.69.13,4.68,0,7.89-.07,9.53-.12l.15.13c-.13,1.32-.23,2.66-.3,3.89l-.08.08h-.73l-.08-.08a6.94,6.94,0,0,0-.23-2.3,15,15,0,0,0-4.3-.4c-1,0-1.95.08-2.45.1-.13,2.22-.13,4.4-.13,6.57,1,0,2,.05,3,.05,1.39,0,2.25-.08,2.4-.35a4.73,4.73,0,0,0,.33-1.74l.08-.08h.66l.08.08c0,1-.05,2-.05,3,0,.68.05,1.7.05,2.58l-.08.08H117l-.08-.08a7.2,7.2,0,0,0-.35-1.82c-.13-.33-1-.46-3.11-.46-.86,0-1.52,0-2.23.05,0,2.35,0,4.73.05,7.05,1.34,0,6.55,0,7.1-.33a7.06,7.06,0,0,0,.66-2.6l.08-.08h.81l.08.08c-.1,1.06-.23,2.73-.28,4.12l-.2.13c-3.36-.1-7.18-.12-10.16-.12a18.79,18.79,0,0,0-2.17.13l-.08-.07v-.48l.1-.13c.83-.38,1-.51,1.06-.66s.18-.51.18-8.77c0-5.87-.08-6.09-.35-6.35a3.85,3.85,0,0,0-1.95-.33l-.08-.08Z"/><path class="cls-3" d="M128.16,34.75a4.44,4.44,0,0,1,1.82-.3c2.78,0,3.92,1.77,3.92,4,0,1.44-.08,3.72-.08,6.12,0,.91.2,1,1.57,1l.13.13v.63l-.13.13c-.68,0-1.34-.12-2-.12s-1.34.08-2,.13l-.28-.23a43.08,43.08,0,0,0,.23-5.56c0-2.5,0-4.27-2.4-4.27-1.37,0-2.93.83-2.93,1.9v3.87c0,2.07,0,2.93.2,3.16s.68.25,1.64.25l.08.08v.73l-.08.07c-1,0-2-.12-3.19-.12-1,0-2.07.08-3,.13l-.08-.07v-.73l.08-.08c1,0,1.52-.1,1.64-.25s.2-1.09.2-3.16v-3c0-2.2,0-2.6-.25-2.73a8.39,8.39,0,0,0-1.59-.1l-.08-.07v-.73l.08-.08a14.08,14.08,0,0,0,4.15-1l.25.18c-.05.58-.1,1.29-.1,2.15Z"/><path class="cls-3" d="M144.47,34.86l.08-.08c.81.08,1.62.13,2.43.13a20.41,20.41,0,0,0,2.17-.13l.08.08v.73l-.08.08c-.91,0-1.11.05-1.69,1.31-.68,1.52-4.07,8.93-4.25,9.66h-1.57c-1.49-3.56-4.25-10-4.7-10.64a1.84,1.84,0,0,0-1.06-.33l-.08-.08v-.73l.08-.08c1,.08,1.9.13,2.83.13s1.92-.05,2.88-.13l.08.08v.73l-.08.08c-.61,0-1.47,0-1.47.48,0,.3.18.86,3.06,7.84,2.88-7.11,3-7.43,3-7.79s-.33-.46-1.62-.53l-.08-.08Z"/><path class="cls-3" d="M149.34,35.56l.08-.08a14.08,14.08,0,0,0,4.15-1l.35.23c-.1.94-.13,2.48-.13,3.44v4.07c0,2.07,0,2.93.2,3.16s.68.25,1.64.25l.08.08v.73l-.08.07c-1,0-2-.12-3.19-.12-1,0-2.07.08-3,.13l-.08-.07v-.73l.08-.08c1,0,1.52-.1,1.64-.25s.2-1.09.2-3.16v-3c0-2.2,0-2.6-.25-2.73a8.39,8.39,0,0,0-1.59-.1l-.08-.07Zm3.08-6.78a1.62,1.62,0,1,1-1.62,1.62A1.63,1.63,0,0,1,152.43,28.79Z"/><path class="cls-3" d="M156.32,35.56l.08-.08a13,13,0,0,0,4.22-1l.35.23c-.08.76-.15,1.92-.15,2.53a11.77,11.77,0,0,0,.94-1c.89-1.06,1.62-1.72,2.86-1.72a3.41,3.41,0,0,1,1.11.18l.13.15a18.86,18.86,0,0,0-.28,3.19h-.45c-.3-.71-.63-1-1.77-1a2.29,2.29,0,0,0-2.43,2.45v2.81c0,2.07,0,2.93.2,3.16a4.46,4.46,0,0,0,2.1.25l.08.08v.73l-.08.07c-1.11,0-2.3-.12-3.64-.12-1,0-2.07.08-3.19.13l-.08-.07v-.73l.08-.08c1.11,0,1.67-.1,1.79-.25s.2-1.09.2-3.16v-3c0-2.2,0-2.6-.25-2.73a9.21,9.21,0,0,0-1.74-.1l-.08-.07Z"/><path class="cls-3" d="M172.63,34.45c4.42,0,6,3.29,6,6.09a6.06,6.06,0,0,1-6.22,6.27c-4.07,0-5.82-2.78-5.82-5.87C166.56,36.93,168.88,34.45,172.63,34.45Zm-.18,1c-2.15,0-3.11,1.67-3.11,4.91s1.21,5.54,3.34,5.54,3.14-1.77,3.14-4.55C175.81,37.41,174.35,35.41,172.45,35.41Z"/><path class="cls-3" d="M186.45,34.75a4.44,4.44,0,0,1,1.82-.3c2.78,0,3.92,1.77,3.92,4,0,1.44-.08,3.72-.08,6.12,0,.91.2,1,1.57,1l.13.13v.63l-.13.13c-.68,0-1.34-.12-2-.12s-1.34.08-2,.13l-.28-.23a43.08,43.08,0,0,0,.23-5.56c0-2.5,0-4.27-2.4-4.27-1.37,0-2.93.83-2.93,1.9v3.87c0,2.07,0,2.93.2,3.16s.68.25,1.64.25l.08.08v.73l-.08.07c-1,0-2-.12-3.19-.12-1,0-2.07.08-3,.13l-.08-.07v-.73l.08-.08c1,0,1.52-.1,1.64-.25s.2-1.09.2-3.16v-3c0-2.2,0-2.6-.25-2.73a8.39,8.39,0,0,0-1.59-.1l-.08-.07v-.73l.08-.08a14.08,14.08,0,0,0,4.15-1l.25.18c-.05.58-.1,1.29-.1,2.15Z"/><path class="cls-3" d="M201.37,34.75a4.44,4.44,0,0,1,1.82-.3,3.37,3.37,0,0,1,3.49,2.5l2.48-2.33a5.34,5.34,0,0,1,1.49-.18c2.83,0,4,1.77,4,4,0,1.44-.08,3.72-.08,6.12,0,.91.2,1,1.57,1l.13.13v.63l-.12.13c-.68,0-1.34-.12-2-.12s-1.34.08-2,.13l-.28-.23A43.25,43.25,0,0,0,212,40.7c0-2.5,0-4.27-2.48-4.27-1.19,0-2.68.94-2.68,1.9v3.87c0,2.07,0,2.93.2,3.16s.68.25,1.64.25l.07.08v.73l-.07.07c-1,0-2-.12-3.19-.12-1,0-2.07.08-3,.13l-.08-.07v-.73l.08-.08c1,0,1.52-.1,1.64-.25s.2-1.09.2-3.16V38.9c0-1.52-.73-2.48-2.25-2.48-1.34,0-2.91.83-2.91,1.9v3.87c0,2.07,0,2.93.2,3.16s.68.25,1.64.25l.08.08v.73l-.08.07c-1,0-2-.12-3.19-.12-1,0-2.07.08-3,.13l-.08-.07v-.73l.08-.08c1,0,1.52-.1,1.64-.25s.2-1.09.2-3.16v-3c0-2.2,0-2.6-.25-2.73a8.39,8.39,0,0,0-1.59-.1l-.08-.07v-.73l.08-.08a14.08,14.08,0,0,0,4.15-1l.25.18c-.05.58-.1,1.29-.1,2.15Z"/><path class="cls-3" d="M228.17,44.41a13.27,13.27,0,0,0-.56,1.24,8.11,8.11,0,0,1-4.22,1.16c-3.59,0-5.79-2.38-5.79-5.89,0-2.45.58-3.92,1.64-4.65,1.77-1.21,3.06-1.82,4.27-1.82,4.88,0,4.88,3.84,4.88,5.46l-.08.13a13.37,13.37,0,0,1-4.17.46h-3.77c.13,2.71,1.39,4.8,4.42,4.8a5.69,5.69,0,0,0,3.06-1.11Zm-7.86-5c1.31.08,2.28.1,3.24.1a16.45,16.45,0,0,0,2.22-.1c0-2.1-.51-4-2.68-4C220.66,35.41,220.3,38.29,220.3,39.43Z"/><path class="cls-3" d="M236.41,34.75a4.44,4.44,0,0,1,1.82-.3c2.78,0,3.92,1.77,3.92,4,0,1.44-.08,3.72-.08,6.12,0,.91.2,1,1.57,1l.13.13v.63l-.13.13c-.68,0-1.34-.12-2-.12s-1.34.08-2,.13l-.28-.23a43.25,43.25,0,0,0,.23-5.56c0-2.5,0-4.27-2.4-4.27-1.37,0-2.93.83-2.93,1.9v3.87c0,2.07,0,2.93.2,3.16s.68.25,1.64.25l.08.08v.73l-.08.07c-1,0-2-.12-3.19-.12-1,0-2.07.08-3,.13l-.08-.07v-.73l.08-.08c1,0,1.52-.1,1.64-.25s.2-1.09.2-3.16v-3c0-2.2,0-2.6-.25-2.73a8.4,8.4,0,0,0-1.59-.1l-.08-.07v-.73l.08-.08a14.08,14.08,0,0,0,4.15-1l.25.18c-.05.58-.1,1.29-.1,2.15Z"/><path class="cls-3" d="M244.32,36.37l.07-.1q.87-.38,1.9-.91c0-1.29,0-2.61-.07-3.89a10.12,10.12,0,0,0,2.53-1.21l.35.3a28.5,28.5,0,0,0-.28,4.85,29.19,29.19,0,0,0,3.21-.1l.13.13-.2,1.34-.1.08-1.47,0-1.59,0c0,2,0,3.72,0,6,0,1.7.63,2.18,1.74,2.18a2.81,2.81,0,0,0,1.44-.38l.25.35a14.6,14.6,0,0,0-1.52,1.62,6.69,6.69,0,0,1-1.57.23c-1.87,0-3-.86-3-3.16,0-2.71.15-5,.15-6.85-.33,0-1.14.08-1.9.13l-.07-.08Z"/><path class="cls-3" d="M254.08,36.27c2.43-1.57,3-1.82,4.15-1.82,2.25,0,4.45.91,4.45,3.64,0,1.69,0,2.93,0,3.89a20.77,20.77,0,0,0,.08,3.24c.15.33.51.38,1.39.38l.08.08v.73l-.08.07a16.51,16.51,0,0,0-2-.12,17.12,17.12,0,0,0-1.95.13l-.15-.12c0-.68.1-1.34.1-1.95-.81.56-2.33,1.82-2.55,2a2.65,2.65,0,0,1-1.64.4,2.81,2.81,0,0,1-3.06-3.09c0-2.35.68-2.93,7.26-4.32,0-1.21-.28-3.13-2.86-3.13a4.3,4.3,0,0,0-2,.48,6.26,6.26,0,0,0-.56,1.31l-.12.05-.56-.18-.08-.1Zm6.07,4c-4.3,1-4.63,1.64-4.63,2.81a1.7,1.7,0,0,0,1.8,1.9c.88,0,1.69-.56,2.83-1.72Z"/><path class="cls-3" d="M265,29l.08-.08a14.07,14.07,0,0,0,4.15-1l.35.23c-.1.94-.12,2.48-.12,3.44V42.19c0,2.07,0,2.93.2,3.16s.68.25,1.64.25l.07.08v.73l-.07.07c-1,0-2-.12-3.19-.12-1,0-2.07.08-3,.13l-.08-.07v-.73l.08-.08c1,0,1.52-.1,1.64-.25s.2-1.09.2-3.16V32.65c0-2.2,0-2.6-.25-2.73a8.57,8.57,0,0,0-1.59-.1l-.08-.08Z"/><path class="cls-3" d="M278,28.89l.08-.08c1.26.05,2.48.13,3.69.13,4.68,0,7.89-.07,9.53-.12l.15.13c-.13,1.32-.23,2.66-.3,3.89l-.08.08h-.73l-.07-.08a6.92,6.92,0,0,0-.23-2.3,15,15,0,0,0-4.3-.4c-1,0-1.95.08-2.45.1-.13,2.22-.13,4.4-.13,6.57,1,0,2,.05,3,.05,1.39,0,2.25-.08,2.4-.35a4.72,4.72,0,0,0,.33-1.74l.08-.08h.66l.08.08c0,1-.05,2-.05,3,0,.68.05,1.7.05,2.58l-.08.08h-.66l-.08-.08a7.19,7.19,0,0,0-.36-1.82c-.12-.33-1-.46-3.11-.46-.86,0-1.52,0-2.22.05,0,2.35,0,4.73.05,7.05,1.34,0,6.55,0,7.11-.33a7.07,7.07,0,0,0,.66-2.6l.08-.08h.81l.08.08c-.1,1.06-.23,2.73-.28,4.12l-.2.13c-3.36-.1-7.18-.12-10.16-.12a18.76,18.76,0,0,0-2.17.13l-.08-.07v-.48l.1-.13c.83-.38,1-.51,1.06-.66s.18-.51.18-8.77c0-5.87-.08-6.09-.35-6.35A3.85,3.85,0,0,0,278,29.7l-.08-.08Z"/><path class="cls-3" d="M300.06,34.75a4.44,4.44,0,0,1,1.82-.3c2.78,0,3.92,1.77,3.92,4,0,1.44-.08,3.72-.08,6.12,0,.91.2,1,1.57,1l.13.13v.63l-.12.13c-.68,0-1.34-.12-2-.12s-1.34.08-2,.13l-.28-.23a43.25,43.25,0,0,0,.23-5.56c0-2.5,0-4.27-2.4-4.27-1.37,0-2.93.83-2.93,1.9v3.87c0,2.07,0,2.93.2,3.16s.68.25,1.64.25l.08.08v.73l-.08.07c-1,0-2-.12-3.19-.12-1,0-2.07.08-3,.13l-.07-.07v-.73l.07-.08c1,0,1.52-.1,1.64-.25s.2-1.09.2-3.16v-3c0-2.2,0-2.6-.25-2.73a8.4,8.4,0,0,0-1.59-.1l-.07-.07v-.73l.07-.08a14.07,14.07,0,0,0,4.15-1l.25.18c-.05.58-.1,1.29-.1,2.15Z"/><path class="cls-3" d="M321.6,35.56c-.25.4-.51.81-.73,1.21-.3,0-.66,0-1,0s-.76,0-1.06,0a5,5,0,0,1,.33,1.7c0,2.73-3.06,4.35-5.23,4.35l-.81,0c-.86.71-1,1-1,1.29,0,.53.3.63,2,.63,1,0,2-.08,3.19-.08,2.2,0,3.62,1.16,3.62,3.14,0,3.08-3.06,5.33-7,5.33-4.22,0-5.34-2.3-5.34-3.59a2.76,2.76,0,0,1,.73-1.85c.66-.33,1.26-.68,1.85-1-.94-.3-1.29-.73-1.29-1.47A1.88,1.88,0,0,1,310.3,44c.63-.46,1.24-.91,1.79-1.39a3.39,3.39,0,0,1-2.91-3.31,4.09,4.09,0,0,1,1.67-3.49,7.5,7.5,0,0,1,4-1.34,4.66,4.66,0,0,1,3.11,1c1.42,0,2.55,0,3.49-.1Zm-6.17,11a18.19,18.19,0,0,0-3,.18c-1.19.71-1.62,1.34-1.62,2.4,0,2,1.57,3,3.36,3,2.65,0,4.5-1.29,4.5-3.44C318.69,47.37,317.73,46.61,315.43,46.61ZM314,35.51a2.36,2.36,0,0,0-2.43,2.5c0,2.81,1.42,3.84,2.43,3.84a2.33,2.33,0,0,0,2.58-2.53C316.62,37.11,315.51,35.51,314,35.51Z"/><path class="cls-3" d="M321.73,35.56l.08-.08a14.08,14.08,0,0,0,4.15-1l.35.23c-.1.94-.13,2.48-.13,3.44v4.07c0,2.07,0,2.93.2,3.16s.68.25,1.64.25l.08.08v.73l-.08.07c-1,0-2-.12-3.19-.12-1,0-2.07.08-3,.13l-.08-.07v-.73l.08-.08c1,0,1.52-.1,1.64-.25s.2-1.09.2-3.16v-3c0-2.2,0-2.6-.25-2.73a8.38,8.38,0,0,0-1.59-.1l-.08-.07Zm3.08-6.78a1.62,1.62,0,1,1-1.62,1.62A1.63,1.63,0,0,1,324.81,28.79Z"/><path class="cls-3" d="M335.5,34.75a4.45,4.45,0,0,1,1.82-.3c2.78,0,3.92,1.77,3.92,4,0,1.44-.08,3.72-.08,6.12,0,.91.2,1,1.57,1l.13.13v.63l-.13.13c-.68,0-1.34-.12-2-.12s-1.34.08-2,.13l-.28-.23a42.89,42.89,0,0,0,.23-5.56c0-2.5,0-4.27-2.4-4.27-1.37,0-2.93.83-2.93,1.9v3.87c0,2.07,0,2.93.2,3.16s.68.25,1.64.25l.08.08v.73l-.08.07c-1,0-2-.12-3.19-.12-1,0-2.07.08-3,.13l-.08-.07v-.73l.08-.08c1,0,1.52-.1,1.64-.25s.2-1.09.2-3.16v-3c0-2.2,0-2.6-.25-2.73a8.38,8.38,0,0,0-1.59-.1l-.08-.07v-.73l.08-.08a14.09,14.09,0,0,0,4.15-1l.25.18c-.05.58-.1,1.29-.1,2.15Z"/><path class="cls-3" d="M354.79,44.41a13.24,13.24,0,0,0-.55,1.24A8.11,8.11,0,0,1,350,46.81c-3.59,0-5.79-2.38-5.79-5.89,0-2.45.58-3.92,1.64-4.65,1.77-1.21,3.06-1.82,4.27-1.82,4.88,0,4.88,3.84,4.88,5.46l-.08.13a13.37,13.37,0,0,1-4.17.46H347c.13,2.71,1.39,4.8,4.43,4.8a5.69,5.69,0,0,0,3.06-1.11Zm-7.86-5c1.31.08,2.28.1,3.24.1a16.46,16.46,0,0,0,2.22-.1c0-2.1-.51-4-2.68-4C347.29,35.41,346.93,38.29,346.93,39.43Z"/><path class="cls-3" d="M367.41,44.41c-.2.4-.4.83-.56,1.24a8.1,8.1,0,0,1-4.22,1.16c-3.59,0-5.79-2.38-5.79-5.89,0-2.45.58-3.92,1.64-4.65,1.77-1.21,3.06-1.82,4.27-1.82,4.88,0,4.88,3.84,4.88,5.46l-.08.13a13.37,13.37,0,0,1-4.17.46h-3.77c.13,2.71,1.39,4.8,4.43,4.8a5.69,5.69,0,0,0,3.06-1.11Zm-7.86-5c1.31.08,2.28.1,3.24.1a16.45,16.45,0,0,0,2.22-.1c0-2.1-.5-4-2.68-4C359.9,35.41,359.54,38.29,359.54,39.43Z"/><path class="cls-3" d="M368.85,35.56l.08-.08a13,13,0,0,0,4.22-1l.35.23c-.08.76-.15,1.92-.15,2.53a11.47,11.47,0,0,0,.94-1c.88-1.06,1.62-1.72,2.86-1.72a3.42,3.42,0,0,1,1.11.18l.13.15A18.8,18.8,0,0,0,378.1,38h-.46c-.3-.71-.63-1-1.77-1a2.29,2.29,0,0,0-2.43,2.45v2.81c0,2.07,0,2.93.2,3.16a4.46,4.46,0,0,0,2.1.25l.08.08v.73l-.08.07c-1.11,0-2.3-.12-3.64-.12-1,0-2.07.08-3.19.13l-.08-.07v-.73l.08-.08c1.11,0,1.67-.1,1.79-.25s.2-1.09.2-3.16v-3c0-2.2,0-2.6-.25-2.73a9.21,9.21,0,0,0-1.74-.1l-.08-.07Z"/><path class="cls-3" d="M378.63,35.56l.08-.08a14.08,14.08,0,0,0,4.15-1l.36.23c-.1.94-.13,2.48-.13,3.44v4.07c0,2.07,0,2.93.2,3.16s.68.25,1.64.25l.08.08v.73l-.08.07c-1,0-2-.12-3.19-.12-1,0-2.07.08-3,.13l-.08-.07v-.73l.08-.08c1,0,1.52-.1,1.64-.25s.2-1.09.2-3.16v-3c0-2.2,0-2.6-.25-2.73a8.4,8.4,0,0,0-1.59-.1l-.08-.07Zm3.09-6.78a1.62,1.62,0,1,1-1.62,1.62A1.63,1.63,0,0,1,381.72,28.79Z"/><path class="cls-3" d="M392.41,34.75a4.44,4.44,0,0,1,1.82-.3c2.78,0,3.92,1.77,3.92,4,0,1.44-.08,3.72-.08,6.12,0,.91.2,1,1.57,1l.13.13v.63l-.13.13c-.68,0-1.34-.12-2-.12s-1.34.08-2,.13l-.28-.23a43.27,43.27,0,0,0,.23-5.56c0-2.5,0-4.27-2.4-4.27-1.37,0-2.93.83-2.93,1.9v3.87c0,2.07,0,2.93.2,3.16s.68.25,1.64.25l.08.08v.73l-.08.07c-1,0-2-.12-3.19-.12-1,0-2.07.08-3,.13l-.08-.07v-.73l.08-.08c1,0,1.52-.1,1.64-.25s.2-1.09.2-3.16v-3c0-2.2,0-2.6-.25-2.73a8.4,8.4,0,0,0-1.59-.1l-.08-.07v-.73l.08-.08a14.08,14.08,0,0,0,4.15-1l.25.18c-.05.58-.1,1.29-.1,2.15Z"/><path class="cls-3" d="M413.95,35.56c-.25.4-.51.81-.73,1.21-.3,0-.66,0-1,0s-.76,0-1.06,0a5,5,0,0,1,.33,1.7c0,2.73-3.06,4.35-5.23,4.35l-.81,0c-.86.71-1,1-1,1.29,0,.53.3.63,2,.63,1,0,2-.08,3.19-.08,2.2,0,3.62,1.16,3.62,3.14,0,3.08-3.06,5.33-7,5.33-4.22,0-5.33-2.3-5.33-3.59a2.76,2.76,0,0,1,.73-1.85c.66-.33,1.27-.68,1.85-1-.94-.3-1.29-.73-1.29-1.47a1.89,1.89,0,0,1,.38-1.19c.63-.46,1.24-.91,1.79-1.39a3.39,3.39,0,0,1-2.91-3.31,4.09,4.09,0,0,1,1.67-3.49,7.49,7.49,0,0,1,4-1.34,4.67,4.67,0,0,1,3.11,1c1.42,0,2.55,0,3.49-.1Zm-6.17,11a18.16,18.16,0,0,0-3,.18c-1.19.71-1.62,1.34-1.62,2.4,0,2,1.57,3,3.36,3,2.65,0,4.5-1.29,4.5-3.44C411,47.37,410.08,46.61,407.78,46.61Zm-1.39-11.1A2.36,2.36,0,0,0,404,38c0,2.81,1.42,3.84,2.43,3.84A2.33,2.33,0,0,0,409,39.33C409,37.11,407.86,35.51,406.39,35.51Z"/></svg>