<?xml version="1.0" encoding="utf-8"?>
<!-- Generator: Adobe Illustrator 24.1.0, SVG Export Plug-In . SVG Version: 6.00 Build 0)  -->
<svg version="1.1" id="Layer_1" xmlns="http://www.w3.org/2000/svg" xmlns:xlink="http://www.w3.org/1999/xlink" x="0px" y="0px"
	 viewBox="0 0 118.2 23.8" style="enable-background:new 0 0 118.2 23.8;" xml:space="preserve">
<path d="M15.8,5.4H4.4V10h10.5v3.8H4.4v5.5h12v3.9H0V1.6h15.8V5.4z"/>
<path d="M23.1,16.5c0.1,0.8,0.4,1.5,0.9,2.2c0.7,0.9,2,1.3,3.8,1.3c0.9,0,1.8-0.1,2.6-0.3c1.2-0.3,2-1.3,1.9-2.5
	c0-0.7-0.3-1.3-0.9-1.7c-0.9-0.5-2-0.8-3-1L26.1,14c-1.7-0.3-3.3-0.8-4.7-1.7c-1.5-1-2.4-2.8-2.2-4.6c0-1.8,0.8-3.6,2.1-4.8
	C22.7,1.6,24.8,1,27.6,1c2.1-0.1,4.2,0.6,5.9,1.8C35.1,4,36,6,36,8h-4.3c0-1.2-0.7-2.2-1.7-2.8c-0.9-0.3-1.8-0.5-2.7-0.5
	c-1,0-2,0.2-2.9,0.7c-0.7,0.4-1.1,1.2-1.1,2c0,0.7,0.4,1.4,1,1.7c0.9,0.4,1.9,0.7,2.9,0.9l3.8,0.9c1.3,0.3,2.6,0.8,3.7,1.6
	c1.3,1.1,2,2.7,1.9,4.4c0,1.9-0.8,3.7-2.3,4.9c-1.8,1.4-4.1,2.1-6.5,2c-2.4,0.1-4.8-0.5-6.7-1.9c-1.6-1.3-2.5-3.2-2.4-5.3L23.1,16.5
	z"/>
<path d="M103.8,13.2c-0.5-0.3-1.1-0.4-1.6-0.5c-0.7-0.1-1.4-0.1-2.1-0.1h-4.4v7h4.2c0.8,0,1.6,0,2.4-0.1c0.6-0.1,1.2-0.2,1.7-0.5
	c0.4-0.2,0.8-0.6,1-1.1c0.2-0.6,0.4-1.2,0.3-1.9c0-0.6-0.1-1.2-0.4-1.8C104.6,13.8,104.2,13.4,103.8,13.2z"/>
<polygon points="75.4,14 82.3,14 78.9,4.8 "/>
<path d="M102,10.9c0.5-0.1,1-0.3,1.4-0.6c0.3-0.3,0.6-0.6,0.8-1.1c0.2-0.5,0.2-0.9,0.2-1.4s-0.1-1-0.3-1.4c-0.2-0.4-0.5-0.7-0.9-0.9
	c-0.5-0.3-1-0.4-1.5-0.5c-0.8-0.1-1.5-0.2-2.3-0.2h-3.9v6.4h4.2C100.5,11.2,101.3,11.1,102,10.9z"/>
<path d="M40.8,0.7v22.5h77.3V0.7H40.8z M65.3,21H54.2V3.4h1.7v16.2h9.5L65.3,21L65.3,21z M84.9,21l-2-5.5h-8L72.7,21H71l7-17.6h1.9
	L86.7,21C86.7,21,84.9,21,84.9,21z M106.5,18.3c-0.3,0.6-0.7,1.1-1.2,1.5s-1.2,0.7-1.8,0.9c-0.8,0.2-1.5,0.3-2.3,0.3H94V3.4h6.4
	c0.9,0,1.8,0.1,2.7,0.3c0.7,0.2,1.3,0.5,1.8,0.9c0.4,0.4,0.8,0.9,1,1.4c0.2,0.6,0.3,1.2,0.3,1.8c0,0.5-0.1,1.1-0.2,1.6
	c-0.1,0.4-0.4,0.8-0.6,1.1s-0.6,0.5-0.9,0.7s-0.7,0.3-1,0.4l0,0c1.1,0.1,2,0.6,2.7,1.5c0.6,0.9,0.9,1.9,0.9,2.9
	C106.9,16.8,106.8,17.6,106.5,18.3z"/>
</svg>
