<?xml version="1.0" encoding="utf-8"?>
<!-- Generator: Adobe Illustrator 27.5.0, SVG Export Plug-In . SVG Version: 6.00 Build 0)  -->
<svg version="1.1" id="Layer_1" xmlns="http://www.w3.org/2000/svg" xmlns:xlink="http://www.w3.org/1999/xlink" x="0px" y="0px"
	 viewBox="0 0 118.2 23.8" style="enable-background:new 0 0 118.2 23.8;" xml:space="preserve">
<path d="M11.2,9H4.1v2.9h6.5v2.4H4.1v3.4h7.5v2.4H1.3V6.6h9.8V9z"/>
<path d="M15.7,15.9c0.1,0.5,0.2,0.9,0.6,1.4c0.4,0.6,1.2,0.8,2.4,0.8c0.6,0,1.1-0.1,1.6-0.2c0.7-0.2,1.2-0.8,1.2-1.6
	c0-0.4-0.2-0.8-0.6-1.1c-0.6-0.3-1.2-0.5-1.9-0.6l-1.4-0.3c-1.1-0.2-2.1-0.5-2.9-1.1c-0.9-0.6-1.5-1.7-1.4-2.9c0-1.1,0.5-2.2,1.3-3
	c0.9-0.8,2.2-1.2,3.9-1.2c1.3-0.1,2.6,0.4,3.7,1.1c1,0.7,1.6,2,1.6,3.2h-2.7c0-0.7-0.4-1.4-1.1-1.7c-0.6-0.2-1.1-0.3-1.7-0.3
	c-0.6,0-1.2,0.1-1.8,0.4c-0.4,0.2-0.7,0.7-0.7,1.2c0,0.4,0.2,0.9,0.6,1.1c0.6,0.2,1.2,0.4,1.8,0.6l2.4,0.6c0.8,0.2,1.6,0.5,2.3,1
	c0.8,0.7,1.2,1.7,1.2,2.7c0,1.2-0.5,2.3-1.4,3c-1.1,0.9-2.5,1.3-4,1.2c-1.5,0.1-3-0.3-4.2-1.2c-1-0.8-1.6-2-1.5-3.3L15.7,15.9z"/>
<path d="M65.9,13.8c-0.3-0.2-0.7-0.2-1-0.3c-0.4-0.1-0.9-0.1-1.3-0.1h-2.7v4.4h2.6c0.5,0,1,0,1.5-0.1c0.4-0.1,0.7-0.1,1.1-0.3
	c0.2-0.1,0.5-0.4,0.6-0.7c0.1-0.4,0.2-0.7,0.2-1.2c0-0.4-0.1-0.7-0.2-1.1C66.4,14.2,66.1,14,65.9,13.8z"/>
<polygon points="48.2,14.3 52.5,14.3 50.4,8.6 "/>
<path d="M64.8,12.4c0.3-0.1,0.6-0.2,0.9-0.4c0.2-0.2,0.4-0.4,0.5-0.7c0.1-0.3,0.1-0.6,0.1-0.9c0-0.3-0.1-0.6-0.2-0.9
	c-0.1-0.2-0.3-0.4-0.6-0.6c-0.3-0.2-0.6-0.2-0.9-0.3c-0.5-0.1-0.9-0.1-1.4-0.1h-2.4v4h2.6C63.8,12.6,64.3,12.5,64.8,12.4z"/>
<path d="M26.7,6.1v14h48.1v-14H26.7z M41.9,18.7H35V7.7h1.1v10.1H42L41.9,18.7L41.9,18.7z M54.1,18.7l-1.2-3.4h-5l-1.4,3.4h-1.1
	l4.4-10.9H51l4.2,10.9H54.1z M67.6,17c-0.2,0.4-0.4,0.7-0.7,0.9c-0.3,0.2-0.7,0.4-1.1,0.6c-0.5,0.1-0.9,0.2-1.4,0.2h-4.5V7.7h4
	c0.6,0,1.1,0.1,1.7,0.2c0.4,0.1,0.8,0.3,1.1,0.6c0.2,0.2,0.5,0.6,0.6,0.9c0.1,0.4,0.2,0.7,0.2,1.1c0,0.3-0.1,0.7-0.1,1
	c-0.1,0.2-0.2,0.5-0.4,0.7s-0.4,0.3-0.6,0.4c-0.2,0.1-0.4,0.2-0.6,0.2l0,0c0.7,0.1,1.2,0.4,1.7,0.9c0.4,0.6,0.6,1.2,0.6,1.8
	C67.8,16.1,67.7,16.6,67.6,17z"/>
</svg>
