<svg id="Layer_1" data-name="Layer 1" xmlns="http://www.w3.org/2000/svg" viewBox="0 0 118.15 23.06"><defs><style>.cls-1{fill:#fff;}</style></defs><title>Logo_White</title><path class="cls-1" d="M15.83,4.73H4.41V9.32H14.9v3.75H4.41v5.55h12V22.5H0V.91H15.83Z"/><path class="cls-1" d="M23.13,15.83A4.38,4.38,0,0,0,24,18q1.12,1.33,3.84,1.33A8.27,8.27,0,0,0,30.44,19a2.51,2.51,0,0,0,1.93-2.5,1.85,1.85,0,0,0-.94-1.66,10.26,10.26,0,0,0-3-1l-2.34-.51a14.56,14.56,0,0,1-4.74-1.66A5.26,5.26,0,0,1,19.17,7,6.21,6.21,0,0,1,21.31,2.2Q23.45.28,27.58.28a9.62,9.62,0,0,1,5.89,1.81A6.43,6.43,0,0,1,36,7.34H31.7A3.09,3.09,0,0,0,30,4.57,6,6,0,0,0,27.27,4a5.12,5.12,0,0,0-2.85.7,2.22,2.22,0,0,0-1.07,2A1.85,1.85,0,0,0,24.4,8.42a13.06,13.06,0,0,0,2.87.89l3.79.89a9.64,9.64,0,0,1,3.73,1.57,5.28,5.28,0,0,1,1.93,4.41,6.2,6.2,0,0,1-2.29,4.92,9.66,9.66,0,0,1-6.46,2,10.56,10.56,0,0,1-6.71-1.93,6.37,6.37,0,0,1-2.44-5.3Z"/><path class="cls-1" d="M103.8,12.51a4.92,4.92,0,0,0-1.64-.5,15.36,15.36,0,0,0-2.13-.13H95.59v7h4.24a20.18,20.18,0,0,0,2.39-.12,4.42,4.42,0,0,0,1.68-.5,2.39,2.39,0,0,0,1-1.08,4.36,4.36,0,0,0,.33-1.85,3.7,3.7,0,0,0-.37-1.78A2.54,2.54,0,0,0,103.8,12.51Z"/><polygon class="cls-1" points="75.42 13.34 82.33 13.34 78.88 4.08 75.42 13.34"/><path class="cls-1" d="M102,10.23a3.7,3.7,0,0,0,1.42-.65,2.39,2.39,0,0,0,.77-1.05,4.09,4.09,0,0,0,.23-1.43,3.32,3.32,0,0,0-.27-1.41,2.13,2.13,0,0,0-.86-.93,4.38,4.38,0,0,0-1.53-.51,14.2,14.2,0,0,0-2.32-.16H95.59v6.37H99.8A9.13,9.13,0,0,0,102,10.23Z"/><path class="cls-1" d="M40.8,0V22.5h77.35V0ZM65.28,20.3H54.15V2.66h1.67V18.88h9.46Zm19.65,0-2-5.54h-8L72.77,20.3H71.06L78,2.66h1.89L86.64,20.3Zm21.53-2.65a4,4,0,0,1-1.19,1.54,4.77,4.77,0,0,1-1.83.85,9.89,9.89,0,0,1-2.32.26H93.92V2.66h6.37a9.6,9.6,0,0,1,2.65.32,4.84,4.84,0,0,1,1.8.91,3.45,3.45,0,0,1,1,1.41,5,5,0,0,1,.32,1.8,4.69,4.69,0,0,1-.25,1.61,3.57,3.57,0,0,1-.64,1.13,3,3,0,0,1-.89.71,3.73,3.73,0,0,1-1,.35v0A4,4,0,0,1,106,12.38a4.72,4.72,0,0,1,.89,2.94A5.66,5.66,0,0,1,106.46,17.65Z"/></svg>