<?xml version="1.0" encoding="utf-8"?>
<!-- Generator: Adobe Illustrator 24.1.0, SVG Export Plug-In . SVG Version: 6.00 Build 0)  -->
<svg version="1.1" id="Layer_1" xmlns="http://www.w3.org/2000/svg" xmlns:xlink="http://www.w3.org/1999/xlink" x="0px" y="0px"
	 viewBox="0 0 505.8 121.6" style="enable-background:new 0 0 505.8 121.6;" xml:space="preserve">
<g>
	<path d="M190.8,41.9h-32v12.9h29.5v10.7h-29.5v15.4h33.7v11h-46.1V31.2h44.4V41.9z"/>
	<path d="M211.3,73.1c0.3,2.2,1.1,4.2,2.5,6.2c2,2.5,5.6,3.7,10.7,3.7c2.5,0,5.1-0.3,7.3-0.8c3.4-0.8,5.6-3.7,5.3-7
		c0-2-0.8-3.7-2.5-4.8c-2.5-1.4-5.6-2.2-8.4-2.8l-6.5-1.4c-4.8-0.8-9.3-2.2-13.2-4.8c-4.2-2.8-6.7-7.9-6.2-12.9
		c0-5.1,2.2-10.1,5.9-13.5c3.9-3.7,9.8-5.3,17.7-5.3c5.9-0.3,11.8,1.7,16.6,5.1c4.5,3.4,7,9,7,14.6h-12.1c0-3.4-2-6.2-4.8-7.9
		c-2.5-0.8-5.1-1.4-7.6-1.4c-2.8,0-5.6,0.6-8.1,2c-2,1.1-3.1,3.4-3.1,5.6c0,2,1.1,3.9,2.8,4.8c2.5,1.1,5.3,2,8.1,2.5l10.7,2.5
		c3.7,0.8,7.3,2.2,10.4,4.5c3.7,3.1,5.6,7.6,5.3,12.4c0,5.3-2.2,10.4-6.5,13.8c-5.1,3.9-11.5,5.9-18.3,5.6
		c-6.7,0.3-13.5-1.4-18.8-5.3c-4.5-3.7-7-9-6.7-14.9L211.3,73.1z"/>
	<path d="M437.9,63.8c-1.4-0.8-3.1-1.1-4.5-1.4c-2-0.3-3.9-0.3-5.9-0.3h-12.4v19.7H427c2.2,0,4.5,0,6.7-0.3c1.7-0.3,3.4-0.6,4.8-1.4
		c1.1-0.6,2.2-1.7,2.8-3.1c0.6-1.7,1.1-3.4,0.8-5.3c0-1.7-0.3-3.4-1.1-5.1C440.2,65.5,439,64.4,437.9,63.8z"/>
	<polygon points="358.2,66.1 377.6,66.1 368,40.2 	"/>
	<path d="M432.9,57.4c1.4-0.3,2.8-0.8,3.9-1.7c0.8-0.8,1.7-1.7,2.2-3.1c0.6-1.4,0.6-2.5,0.6-3.9c0-1.4-0.3-2.8-0.8-3.9
		c-0.6-1.1-1.4-2-2.5-2.5c-1.4-0.8-2.8-1.1-4.2-1.4c-2.2-0.3-4.2-0.6-6.5-0.6h-11v18h11.8C428.7,58.2,430.9,57.9,432.9,57.4z"/>
	<path d="M261,28.7v63.2h217.1V28.7H261z M329.8,85.7h-31.2V36.3h4.8v45.5h26.7L329.8,85.7L329.8,85.7z M384.9,85.7l-5.6-15.4h-22.5
		l-6.2,15.4h-4.8l19.7-49.4h5.3l19.1,49.4H384.9z M445.5,78.1c-0.8,1.7-2,3.1-3.4,4.2c-1.4,1.1-3.4,2-5.1,2.5
		c-2.2,0.6-4.2,0.8-6.5,0.8h-20.2V36.3h18c2.5,0,5.1,0.3,7.6,0.8c2,0.6,3.7,1.4,5.1,2.5c1.1,1.1,2.2,2.5,2.8,3.9
		c0.6,1.7,0.8,3.4,0.8,5.1c0,1.4-0.3,3.1-0.6,4.5c-0.3,1.1-1.1,2.2-1.7,3.1c-0.6,0.8-1.7,1.4-2.5,2c-0.8,0.6-2,0.8-2.8,1.1l0,0
		c3.1,0.3,5.6,1.7,7.6,4.2c1.7,2.5,2.5,5.3,2.5,8.1C446.6,73.9,446.4,76.2,445.5,78.1z"/>
</g>
<g>
	<path d="M46.7,92.3c6.8,5.3,13.5,8.2,13.8,8.3l0.5,0.2l0.5-0.2c0.3-0.1,6.9-3,13.7-8.3c9.1-7.1,13.9-15.2,13.9-23.5V31.2H32.7v37
		C32.7,76.7,37.5,85.1,46.7,92.3z M59.6,80.7c-0.3-0.1-0.6-0.2-1-0.2c0,0,0,0-0.1,0c-1.4,0-2.4,0.1-3.5,0.2s-2.2,0.2-3.8,0.2
		c-0.7,0-1.4,0-1.9,0V63.3c0.1,0,0.2,0,0.2,0c0.7,0,1.5,0,2.6,0c0.9,0,1.9-0.1,3-0.2c0.6-0.1,1.3-0.1,2-0.2c1.2-0.1,2.2,0.1,2.2,0.1
		c0.1,0,0.2,0.1,0.3,0.1C59.6,63,59.6,80.7,59.6,80.7z M86.4,68.8c0,15.4-18.9,25.8-24.5,28.6v-14c0.1-0.1,0.2-0.2,0.3-0.3
		c0.3-0.3,0.5-0.5,1-0.5c1.3,0,2.3,0.1,3.4,0.2s2.2,0.2,3.9,0.2c1.7,0,3,0,3,0h0.9v-5.2h2.2V75h-2.2v-5.1h2.2v-2.8h-2.2v-5.7h-1
		c-0.4,0-0.8,0-1.3,0c-0.7,0-1.5,0-2.5,0c-0.8,0-1.7-0.1-2.8-0.2c-0.6-0.1-1.3-0.1-2-0.2c-1.5-0.2-2.8,0.1-2.9,0.1c0,0,0,0-0.1,0
		v-5.5h24.5L86.4,68.8z M61.9,80.8V63.1c0.1-0.1,0.3-0.1,0.5-0.2c0,0,1.1-0.2,2.3-0.1c0.7,0.1,1.4,0.1,2,0.2c1.1,0.1,2.1,0.2,3,0.2
		s1.6,0,2.3,0c0.2,0,0.4,0,0.5,0v17.7c-0.5,0-1.2,0-1.9,0c-1.6,0-2.7-0.1-3.8-0.2c-1.1-0.1-2.1-0.2-3.5-0.2
		C62.7,80.6,62.3,80.7,61.9,80.8z M35.4,33.9h51V53h-51V33.9z M35.4,55.6h24.3v5.3c-0.4-0.1-1.5-0.2-2.7-0.1c-0.7,0.1-1.4,0.1-2,0.2
		c-1.1,0.1-2,0.2-2.8,0.2c-1,0-1.8,0-2.5,0c-0.5,0-0.9,0-1.3,0h-1v5.1H45v2.8h2.4v5.1H45V77h2.4v5.7h0.9c0.1,0,1.4,0.1,3,0
		c1.7,0,2.9-0.1,3.9-0.2c1.1-0.1,2-0.2,3.3-0.2c0.5,0,0.7,0.2,0.9,0.5l0.1,0.1V97c-5.7-2.6-24.1-12.9-24.1-28.8V55.6z"/>
	<path d="M56.7,35.8H42.4v1c0,3.1,0,8.4,0,8.6c0.1,1.1,0.8,2.1,2.2,3c1.7,1.2,4.3,2.7,4.4,2.7l0.5,0.3l0.5-0.3
		c0.1-0.1,2.9-1.6,4.6-2.7c2-1.3,2.1-2.6,2.1-3c0-0.2,0-4.8,0-8.6C56.7,36.8,56.7,35.8,56.7,35.8z M44.4,37.8h10.2
		c0,0.8,0,1.7,0,2.6H44.4C44.4,39.5,44.4,38.6,44.4,37.8z M54.7,45.3c0,0.5-0.7,1-1.2,1.4c-1.2,0.8-3.1,1.9-4,2.4
		c-0.8-0.5-2.6-1.5-3.8-2.4c-0.8-0.5-1.3-1.1-1.3-1.5c0-0.1,0-1.3,0-2.9h10.2C54.7,43.9,54.7,45.1,54.7,45.3z"/>
	<path d="M80.9,35.4H66.4v1c0,3.9,0,8.6,0,8.9c0.1,1.1,0.8,2.1,2.2,3c1.8,1.2,4.4,2.7,4.5,2.8l0.5,0.3l0.5-0.3
		c0.1-0.1,3-1.6,4.7-2.8c2.1-1.4,2.1-2.6,2.1-3c0-0.2,0-4.9,0-8.8L80.9,35.4z M78.9,45.1c0,0.5-0.7,1.1-1.2,1.4
		c-1.3,0.8-3.2,1.9-4.1,2.4c-0.9-0.5-2.6-1.6-3.9-2.4c-0.4-0.3-1.3-0.9-1.3-1.5c0-0.1,0-0.2,0-0.5l5-3.6l5.5,3.7
		C78.9,44.9,78.9,45.1,78.9,45.1z M73.4,38.4l-5,3.6c0-1.4,0-3.2,0-4.7H79c0,1.6,0,3.3,0,4.8L73.4,38.4z"/>
	<path d="M64.5,67.1l1,0.1c0.6,0.1,1.2,0.1,1.7,0.1l2.9,0.1v-2l-2.9-0.1c-0.4,0-0.9-0.1-1.5-0.1l-1-0.1c-0.3,0-0.5,0-0.7,0l0.1,2
		C64.2,67,64.4,67,64.5,67.1z"/>
	<path d="M67.2,70.8c-0.4,0-0.9-0.1-1.5-0.1c-0.3,0-0.7-0.1-1-0.1c-0.3,0-0.5,0-0.7,0v2c0.1,0,0.3,0,0.5,0c0.4,0,0.7,0.1,1,0.1
		c0.6,0.1,1.1,0.1,1.6,0.1c0.6,0,1.5,0,2.2,0h0.8v-2h-0.8C68.7,70.9,67.8,70.8,67.2,70.8z"/>
	<path d="M67.2,76.4c-0.4,0-0.9-0.1-1.5-0.1c-0.3,0-0.7-0.1-1-0.1c-0.3,0-0.5,0-0.7,0l0.1,2c0.1,0,0.3,0,0.5,0c0.4,0,0.7,0.1,1,0.1
		c0.6,0.1,1.2,0.1,1.6,0.1H68c0.8,0,1.8,0,2.1,0.1v-2c-0.3,0-1.3,0-2.1-0.1H67.2z"/>
	<path d="M54.6,67.3c0.5,0,1-0.1,1.7-0.1c0.3,0,0.6-0.1,1-0.1c0.2,0,0.3,0,0.5,0v-2c-0.2,0-0.4,0-0.7,0c-0.4,0-0.7,0.1-1,0.1
		c-0.6,0.1-1.1,0.1-1.5,0.1l-2.9,0.1v2L54.6,67.3z"/>
	<path d="M56.1,70.7c-0.6,0.1-1.1,0.1-1.5,0.1l-2.9,0.1v2l2.9-0.1c0.5,0,1-0.1,1.7-0.1l0.9-0.1c0.2,0,0.3,0,0.4,0l0.1-2
		c-0.2,0-0.4,0-0.7,0L56.1,70.7z"/>
	<path d="M56.1,76.2c-0.6,0.1-1.1,0.1-1.6,0.1c-0.9,0-2.4,0.1-2.8,0.1v2c0.4,0,1.9-0.1,2.9-0.1c0.5,0,1-0.1,1.7-0.1l1-0.1
		c0.1,0,0.3,0,0.4,0v-2c-0.2,0-0.4,0-0.7,0L56.1,76.2z"/>
	<path d="M10.1,60.9c2.5,0,4-1.6,4.2-4.4c0-0.5,0-1.2-0.1-1.9v-0.2h-2.1l0.2,0.4c0.1,0.3,0.2,1,0.2,1.6c-0.1,1.4-1.2,2.3-2.7,2.2
		c-1.6-0.1-2.5-1.1-2.5-2.5c0-0.5,0.1-1,0.5-1.5l0.3-0.4l-2-0.3L6,54.1c-0.3,0.6-0.4,1.3-0.5,1.9c-0.2,2.9,1.4,4.8,4.3,4.9
		C9.9,60.9,10,60.9,10.1,60.9z"/>
	<path d="M10.5,51.1c0.6,0.2,1.1,0.2,1.6,0.2c1.9,0,3.3-1.1,3.9-3c0.3-1.2,0.2-2.2-0.3-3.2c-0.6-1-1.6-1.7-2.9-2.1
		c-0.5-0.2-1.1-0.2-1.5-0.2c-1.9,0-3.3,1.1-3.9,3C6.6,48.3,7.8,50.3,10.5,51.1z M9.1,46.4c0.3-1.1,1.2-1.3,1.9-1.3
		c0.3,0,0.7,0.1,1.1,0.2c0.9,0.3,1.6,0.7,1.9,1.3c0.2,0.4,0.3,0.8,0.1,1.3c-0.3,1.1-1.2,1.3-1.9,1.3c-0.4,0-0.7-0.1-1.1-0.2
		C9.9,48.6,8.7,47.7,9.1,46.4z"/>
	<path d="M19.1,39.9l-2.9-1.6l0.1-0.2c0.3-0.5,0.5-0.5,0.9-0.4l2.9,0.4l1.1-2.1l-3.8-0.4c-0.3,0-0.5,0-0.7,0c0-0.8-0.4-1.6-1.2-2
		c-0.4-0.2-0.8-0.3-1.2-0.3c-1.4,0-2.1,1.4-2.8,2.7l-1,1.9l7.6,4.1L19.1,39.9z M14.6,37.2l-0.1,0.2l-1.4-0.7l0.1-0.2
		c0.3-0.6,0.7-1.2,1.3-0.9c0.2,0.1,0.3,0.2,0.4,0.4C15,36.4,14.8,36.9,14.6,37.2z"/>
	<polygon points="23.8,32.3 19.9,29.1 25.5,30.4 27,28.5 20.4,23 19,24.6 23,27.9 17.4,26.6 15.8,28.5 22.5,34 	"/>
	<polygon points="33.5,23 32.3,21.6 29.9,23.5 28.8,22.2 31,20.4 29.8,19 27.6,20.8 26.8,19.7 29.2,17.8 28,16.3 23.9,19.6 
		29.3,26.3 	"/>
	<polygon points="40.6,18.7 39.7,17.1 37,18.6 33.7,12.7 31.8,13.8 36,21.3 	"/>
	<polygon points="47.9,15.9 47.2,14.2 44.4,15.2 42.1,8.9 40,9.6 42.9,17.7 	"/>
	<path d="M56.6,14.5c0.2,0,0.3,0,0.5,0c1.2-0.1,2.1-0.5,2.6-1.1s0.7-1.5,0.6-2.5l-0.4-5.4l-2.2,0.1l0.4,4.9c0.1,1.7-0.6,2-1.2,2.1
		c-0.1,0-0.1,0-0.2,0c-0.5,0-1.2-0.2-1.4-1.9l-0.4-4.9L52.7,6l0.4,5.4C53.5,13.4,54.6,14.5,56.6,14.5z"/>
	<polygon points="66.5,9.4 68.3,14.7 70.8,15.1 71.9,6.5 69.8,6.2 69.1,11.3 67.3,5.9 64.9,5.6 63.7,14.1 65.8,14.4 	"/>
	<polygon points="78.4,8.4 76.3,7.7 73.7,15.9 75.8,16.6 	"/>
	<polygon points="89.2,13.2 87.3,12.2 83.1,16.5 84,10.6 81.9,9.5 80.6,18.6 82.8,19.6 	"/>
	<polygon points="91.4,25.6 92.5,24.1 90.1,22.2 91.1,20.9 93.3,22.6 94.5,21.1 92.3,19.4 93.1,18.3 95.5,20.2 96.7,18.7 92.5,15.5 
		87.2,22.3 	"/>
	<path d="M95,29.2l2.5-2.2l0.1,0.2c0.3,0.4,0.3,0.5,0.1,1l-1.4,2.6l1.6,1.8l1.7-3.4c0.1-0.1,0.2-0.4,0.2-0.7
		c0.7,0.3,1.6,0.2,2.3-0.4c1.9-1.6,0.4-3.3-0.7-4.6l-1.4-1.6l-6.5,5.7L95,29.2z M100.1,24.7l0.1,0.2c0.3,0.4,0.6,0.8,0.6,1.1
		c0,0.2-0.1,0.3-0.3,0.4c-0.1,0.2-0.3,0.2-0.4,0.2c-0.4,0-0.8-0.4-1-0.7L99,25.7L100.1,24.7z"/>
	<path d="M103,36.1c-0.4,0.3-1-0.2-1.2-0.6c-0.3-0.5-0.4-1-0.4-1.7v-0.5l-2,0.9l0.1,0.4c0.2,0.7,0.3,1.1,0.7,1.8
		c0.7,1.2,1.6,1.8,2.6,1.8c0.5,0,0.9-0.1,1.4-0.4c1.5-0.9,1.3-2.3,1.1-3.4c-0.1-0.7-0.2-1.2,0.1-1.4c0.2-0.1,0.3-0.1,0.4-0.1
		c0.4,0,0.7,0.4,0.8,0.5c0.3,0.4,0.4,0.9,0.5,1.4l0.1,0.4l1.8-0.8v-0.2c-0.1-0.6-0.4-1.2-0.8-1.9c-0.9-1.6-2.5-2.1-3.9-1.2
		c-1.5,0.9-1.3,2.3-1.1,3.3C103.3,35.4,103.4,35.9,103,36.1z"/>
	<rect x="103.3" y="40.2" transform="matrix(0.9259 -0.3777 0.3777 0.9259 -7.6125 43.6961)" width="8.6" height="2.2"/>
	<polygon points="112,46.8 105.5,48.4 106,50.5 112.6,48.9 113.1,51.1 114.9,50.7 113.3,44.1 111.5,44.6 	"/>
	<polygon points="107,57.2 107.1,59.4 110.5,59.2 115.9,62 115.8,59.6 112.6,58.1 115.6,56.2 115.4,53.6 110.4,57.1 	"/>
	<polygon points="11.8,77 13.6,76.5 12.9,73.9 14.2,73.5 15,76.3 16.8,75.7 15.4,70.9 7.1,73.3 7.7,75.4 11.1,74.4 	"/>
	<path d="M19.5,84.2c0.3-1,0.2-2.1-0.3-3.2c-0.8-1.6-2-2.4-3.6-2.4c-0.7,0-1.5,0.2-2.3,0.6c-1.3,0.6-2.1,1.5-2.5,2.6
		c-0.3,1-0.2,2.1,0.3,3.2c0.8,1.5,2,2.4,3.6,2.4c0.7,0,1.5-0.2,2.3-0.6C18.3,86.1,19.2,85.3,19.5,84.2z M16.1,84.7
		c-0.5,0.3-1.1,0.4-1.6,0.4c-0.8,0-1.3-0.3-1.6-1c-0.2-0.5-0.3-0.9-0.1-1.3c0.2-0.6,0.8-1.2,1.6-1.6c0.5-0.2,1-0.4,1.5-0.4
		c0.8,0,1.3,0.3,1.6,1c0.2,0.5,0.3,0.9,0.1,1.3C17.4,83.7,16.9,84.3,16.1,84.7z"/>
	<path d="M25.5,90.9L21.6,94c-1,0.8-1.8,0.9-2.4,0.2c-0.2-0.3-0.3-0.6-0.3-0.9c0.1-0.4,0.4-0.9,1-1.4l3.9-3.1l-1.4-1.7l-4.3,3.4
		c-0.9,0.7-1.4,1.5-1.4,2.4c0,0.8,0.3,1.6,1,2.5c0.8,1.1,1.7,1.6,2.7,1.6c0.7,0,1.4-0.3,2.1-0.9l4.3-3.5L25.5,90.9z"/>
	<polygon points="32.8,97.9 29.6,101.9 30.8,96.3 28.9,94.7 23.4,101.4 25.1,102.8 28.3,98.8 27.1,104.4 29,106 34.5,99.3 	"/>
	<path d="M39.2,102l-2.2-1.1l-3.9,7.7l2.2,1.1c1.1,0.5,2,0.8,2.9,0.8c1.5,0,2.7-0.8,3.5-2.4C43,105.5,42.1,103.5,39.2,102z
		 M39.6,107.1c-0.4,0.9-1.2,1.4-2.1,1.4c-0.4,0-0.7-0.1-1.1-0.3l-0.5-0.3l2.2-4.4l0.5,0.3c0.6,0.3,1,0.8,1.2,1.3
		C40,105.8,39.9,106.4,39.6,107.1z"/>
	<polygon points="44,113.4 49.1,114.8 49.6,113 46.6,112.2 47,110.6 49.8,111.3 50.3,109.5 47.5,108.8 47.8,107.4 50.9,108.2 
		51.3,106.4 46.2,105.1 	"/>
	<path d="M56.7,107.1l-2.5-0.1l-0.5,8.6l2.5,0.1c0.2,0,0.4,0,0.6,0c2.9,0,4.4-1.4,4.6-4.1c0.1-1.3-0.2-2.4-0.9-3.2
		C59.7,107.7,58.5,107.2,56.7,107.1z M56.6,113.9H56l0.3-4.9h0.6c1.2,0.1,2.3,1,2.2,2.6S57.8,113.9,56.6,113.9z"/>
	<path d="M69,106.4l-1.5,9.1l2.3-0.5l0.3-1.9l2.8-0.6l1.1,1.7l2.4-0.5l-5.1-7.7L69,106.4z M70.4,111.2l0.3-2.3l1.2,1.9L70.4,111.2z"
		/>
	<polygon points="77.2,110.9 78,113 80,112.2 79.3,110.2 	"/>
	<path d="M81.4,102.2l-2.2,1.2l4.1,7.6l2.2-1.2c2.9-1.6,3.6-3.6,2.3-6.1C86.5,101.1,84.3,100.6,81.4,102.2z M84.9,108l-0.5,0.3
		l-2.3-4.3l0.5-0.3c0.3-0.2,0.7-0.3,1.1-0.3c0.9,0,1.6,0.5,2.1,1.3C86.6,106.1,85.9,107.4,84.9,108z"/>
	<polygon points="89.5,104.9 90.7,106.7 92.5,105.4 91.3,103.6 	"/>
	<polygon points="92.9,93.8 92.5,97.2 94.4,97.5 94.6,96.1 98.7,100.2 100.3,98.7 94.2,92.5 	"/>
	<path d="M104.6,89.3c-0.7-0.5-1.5-0.6-2.4-0.3c0-0.8-0.4-1.6-1-2c-1.1-0.8-2.5-0.3-3.6,1.1c-1,1.4-0.9,2.8,0.3,3.7
		c0.6,0.4,1.4,0.5,2.1,0.3c-0.1,0.9,0.2,1.6,0.9,2.1c0.5,0.4,1,0.5,1.5,0.5c0.9,0,1.7-0.5,2.5-1.5c0.6-0.8,0.9-1.6,0.8-2.4
		C105.6,90.3,105.2,89.8,104.6,89.3z M100.5,89.9c-0.3,0.2-0.6,0.4-0.9,0.4c-0.1,0-0.3,0-0.4-0.1c-0.4-0.3-0.2-0.8,0-1.1
		c0.1-0.2,0.3-0.3,0.5-0.3c0.1,0,0.3,0.1,0.5,0.2C100.5,89.2,100.6,89.6,100.5,89.9z M103.5,92.3c-0.3,0.4-0.8,0.5-1.2,0.2
		c-0.3-0.3-0.5-0.6-0.4-1.2c0.6-0.4,1.1-0.5,1.5-0.2c0.2,0.1,0.3,0.3,0.3,0.5S103.6,92.1,103.5,92.3z"/>
	<path d="M108.5,80.9c-1.5-0.7-2.9-0.3-3.6,1.1c-0.2,0.4-0.3,0.8-0.2,1.2c-0.5-0.4-1-1.1-0.6-2c0.2-0.4,0.5-0.7,0.8-1l0.3-0.2
		l-1.6-1.1l-0.2,0.2c-0.4,0.4-0.8,0.9-1.1,1.5c-0.4,0.9-0.5,1.7-0.2,2.5c0.5,1.4,1.9,2.4,3,2.9c1,0.5,1.8,0.7,2.5,0.7
		c1.1,0,1.9-0.5,2.5-1.6C110.9,83.3,110.3,81.8,108.5,80.9z M108.5,84.1c-0.1,0.3-0.4,0.4-0.7,0.4c-0.2,0-0.5-0.1-0.7-0.2
		c-0.4-0.2-0.7-0.5-0.8-0.7c-0.1-0.2,0-0.3,0-0.5c0.1-0.3,0.3-0.4,0.7-0.4c0.2,0,0.5,0.1,0.8,0.2c0.4,0.2,0.6,0.4,0.7,0.7
		C108.6,83.8,108.5,84,108.5,84.1z"/>
	<path d="M111.6,72.1c-1.7-0.5-3.1,0.3-3.6,1.9c0,0.2-0.1,0.3-0.1,0.4l-1-0.3l0.9-3l-1.7-0.5l-1.5,5l4.8,1.5v-0.4
		c0-0.5,0.1-0.9,0.2-1.4c0.1-0.4,0.6-1.4,1.5-1.2c1,0.3,0.8,1.4,0.7,1.7c-0.2,0.6-0.5,1-0.8,1.4l-0.3,0.3l2,0.7l0.1-0.2
		c0.3-0.6,0.6-1.3,0.8-1.8c0.3-1,0.3-1.9-0.1-2.7C113.1,72.9,112.4,72.4,111.6,72.1z"/>
	<path d="M17.1,60.6c0,24,19.5,43.6,43.5,43.6s43.5-19.5,43.5-43.6c0-24-19.5-43.5-43.5-43.5C36.7,17,17.1,36.6,17.1,60.6z
		 M60.7,18.5c23.2,0,42,18.9,42,42c0,23.2-18.9,42-42,42c-23.2,0-42-18.9-42-42C18.6,37.4,37.5,18.5,60.7,18.5z"/>
	<path d="M60.7,1C27.8,1,1.1,27.7,1.1,60.6c0,32.8,26.7,59.6,59.6,59.6c32.8,0,59.6-26.7,59.6-59.6C120.2,27.7,93.5,1,60.7,1z
		 M60.7,118.6c-32,0-58-26-58-58s26-58,58-58s58,26,58,58S92.7,118.6,60.7,118.6z"/>
</g>
</svg>
